<svg width="860" height="205" viewBox="0 0 860 205" fill="none" xmlns="http://www.w3.org/2000/svg">
<g clip-path="url(#clip0_593_6045)">
<rect width="860" height="205" fill="#4A95EC"/>
<circle cx="653.994" cy="99.1198" r="26.7238" stroke="#FEFEFE" stroke-width="0.971774"/>
<g clip-path="url(#clip1_593_6045)">
<path d="M265.473 118.969C263.344 118.391 261.176 117.963 258.987 117.689C256.676 117.526 254.117 117.105 251.797 120.198C249.478 123.29 249.083 126.632 249.169 129.947C249.255 133.263 248.842 135.651 251.359 136.459C253.876 137.266 256.359 138.348 258.833 138.245C261.307 138.142 264.665 137.215 264.897 136.115C265.129 135.016 265.541 125.472 265.464 125.137C265.387 124.802 265.473 118.969 265.473 118.969Z" fill="#392833"/>
<path d="M254.855 120.858C255.826 117.165 257.321 113.127 259.855 110.172C260.233 109.734 260.842 110.293 260.619 110.765C258.901 114.201 257.132 117.431 256.152 121.211C256.106 121.383 255.992 121.529 255.838 121.618C255.683 121.706 255.5 121.73 255.328 121.683C255.156 121.636 255.009 121.523 254.921 121.369C254.832 121.214 254.808 121.03 254.855 120.858Z" fill="#392833"/>
<path d="M233.551 159.669C233.551 159.669 229.35 157.651 228.56 157.797C227.349 158.02 222.925 167.289 224.265 168.105C225.605 168.921 227.443 166.198 228.818 164.944C230.192 163.689 232.752 163.715 232.752 163.715L233.551 159.669Z" fill="#392833"/>
<path d="M249.598 153.14C249.598 153.14 246.333 149.816 245.543 149.704C244.323 149.498 237.692 156.095 238.671 157.306C239.65 158.517 241.643 157.212 243.37 156.499C245.096 155.786 247.484 156.679 247.484 156.679L249.598 153.14Z" fill="#392833"/>
<path d="M297.084 83.0191C297.084 83.0191 296.826 77.7791 296.319 77.195C295.813 76.6109 294 74.1283 294.661 73.9308C295.323 73.7332 296.508 75.7948 296.998 75.6488C297.488 75.5027 297.531 69.0344 298.183 69.0774C298.836 69.1203 298.355 73.8535 298.991 73.6043C299.627 73.3552 299.773 68.8626 300.597 69.0258C301.422 69.189 300.219 73.1319 300.657 73.527C301.095 73.9222 301.516 69.5069 302.427 69.7732C303.337 70.0395 302.006 74.4032 302.126 74.9272C302.247 75.4512 303.844 72.4619 304.102 72.7969C304.36 73.1319 303.818 74.5922 303.243 76.1556C302.667 77.719 302.083 78.956 301.765 79.9095C301.448 80.863 300.443 84.2045 300.443 84.2045L297.084 83.0191Z" fill="#EFA892"/>
<path d="M243.774 87.5622C243.774 87.5622 242.812 82.4081 243.182 81.7295C243.551 81.0509 244.728 78.2076 244.041 78.1732C243.353 78.1388 242.683 80.398 242.168 80.3637C241.653 80.3293 240.132 74.0414 239.496 74.2389C238.861 74.4365 240.433 78.9205 239.754 78.8261C239.076 78.7316 237.907 74.385 237.177 74.7372C236.447 75.0894 238.483 78.6457 238.148 79.1353C237.813 79.6249 236.361 75.4244 235.571 75.8882C234.78 76.3521 237.048 80.295 237.04 80.7932C237.031 81.2914 234.78 78.7917 234.626 79.1782C234.471 79.5648 235.313 80.8963 236.215 82.2449C237.117 83.5936 237.985 84.7103 238.517 85.5607C239.05 86.4111 240.785 89.4262 240.785 89.4262L243.774 87.5622Z" fill="#EFA892"/>
<path d="M281.038 143.013C280.468 149.128 279.562 155.208 278.324 161.224C277.396 165.442 275.832 169.204 273.29 174.478C271.847 177.485 270.541 179.358 267.56 179.04C264.579 178.722 263.265 175.707 261.47 176.136C259.675 176.566 258.627 178.507 255.654 177.528C251.858 176.282 243.336 171.764 240.381 170.252C237.426 168.74 231.516 165.296 231.276 164.179C231.035 163.062 231.748 158.982 233.114 158.982C234.48 158.982 242.297 161.782 244.376 162.418C246.454 163.054 253.163 166.094 255.397 165.613C257.63 165.132 257.39 154.67 257.871 151.01C258.352 147.351 260.345 139.182 260.345 139.182L281.038 143.013Z" fill="#6E81BF"/>
<path d="M282.077 96.2392C282.077 96.2392 285.058 90.2949 282.833 87.1251C281.536 85.2697 280.334 84.7972 279.243 84.0241C277.241 82.6153 276.288 80.6654 274.089 80.6654C271.89 80.6654 271.297 81.9453 268.935 81.5845C266.572 81.2237 265.928 79.4971 262.655 78.8185C259.382 78.1399 256.848 77.8049 255.105 78.9302C254.357 79.4026 254.074 80.0297 253.387 81.301C252.699 82.5724 251.669 82.8215 252.193 84.5395C252.716 86.2575 253.55 87.3313 252.871 89.6077C252.193 91.884 250.354 93.4818 252.055 94.9593C253.756 96.4368 255.268 95.3201 256.668 97.5363C258.068 99.7526 256.788 102.123 259.58 102.768C262.372 103.412 263.574 103.807 265.292 103.524C267.01 103.24 266.263 102.725 268.196 102.003C270.129 101.282 269.965 102.287 271.838 101.144C273.711 100.002 275.317 97.4332 276.193 96.9092C277.069 96.3852 282.077 96.2392 282.077 96.2392Z" fill="#B4492E"/>
<path d="M278.211 88.3444C280.015 90.0982 281.329 92.2922 282.025 94.7097C283.125 98.601 281.939 101.092 281.115 101.47C280.29 101.848 279.01 102.2 279.044 103.643C279.224 104.994 279.538 106.323 279.981 107.612C279.981 107.612 276.081 109.33 275.394 109.433C274.706 109.536 272.731 107.715 272.731 107.715C272.731 107.715 273.744 103.36 273.366 102.028C272.988 100.697 271.236 99.2109 270.282 98.5924C269.329 97.9739 268.152 96.7369 268.204 95.4055C268.255 94.074 267.937 91.2908 269.922 89.8563C271.906 88.4217 274.878 87.1504 275.995 87.1504C276.847 87.2861 277.629 87.707 278.211 88.3444Z" fill="#EFA892"/>
<path d="M280.239 88.0539C280.239 88.0539 283.486 90.21 278.856 90.0554C276.614 89.9781 277.069 89.7118 275.738 90.3561C275.008 90.7083 275.549 91.8851 273.582 92.873C271.615 93.8608 272.723 96.5667 271.615 96.017C270.507 95.4672 270.223 96.498 270.816 97.735C271.316 98.741 271.89 99.7086 272.534 100.63L267.38 97.2883L267.191 93.0791C267.191 93.0791 269.218 87.968 269.373 87.7791C269.527 87.5901 273.719 86.061 273.925 85.9665C275.05 85.8367 276.185 85.8367 277.31 85.9665C278.34 86.5834 279.32 87.2814 280.239 88.0539Z" fill="#B4492E"/>
<path d="M266.46 163.611C266.46 163.611 255.379 155.433 252.235 153.586C248.842 151.585 248.24 152.908 247.682 153.947C247.124 154.987 246.17 155.425 246.17 156.524C246.17 157.624 251.599 162.958 254.554 166.472C256.505 168.732 258.703 170.767 261.108 172.536L266.46 163.611Z" fill="#6E81BF"/>
<path d="M288.356 101.239C287.712 101.29 287.059 101.35 286.415 101.428C287.935 100.225 289.533 98.8507 290.805 97.7168C293.614 98.404 296.491 99.0483 299.274 98.5758C298.702 99.7829 297.952 100.898 297.05 101.883C294.212 101.162 291.27 100.944 288.356 101.239Z" fill="#F9EDCF"/>
<path d="M291.5 97.0206C292.139 96.4681 292.679 95.8118 293.098 95.0792C293.289 94.5184 293.439 93.9441 293.545 93.3612C294.868 93.3612 296.216 93.1293 297.496 93.1035C298.45 93.1035 299.386 93.1035 300.331 93.198C299.945 95.0792 299.584 96.7629 299.403 97.7937C296.744 98.0563 294.059 97.7936 291.5 97.0206Z" fill="#F9EDCF"/>
<path d="M274.449 129.336C276.871 130.367 279.766 131.449 282.446 131.106C282.386 132.059 282.403 133.468 282.446 135.023C280.479 135.538 278.418 135.576 276.433 135.135C273.954 134.488 271.549 133.581 269.26 132.429C267.015 131.358 264.663 130.528 262.242 129.955C262.552 128.967 262.809 128.074 262.964 127.378C263.017 127.157 263.057 126.933 263.084 126.708C264.494 126.697 265.902 126.807 267.293 127.034C269.758 127.527 272.159 128.3 274.449 129.336Z" fill="#F9EDCF"/>
<path d="M270.824 139.447C274.664 140.426 278.744 140.194 282.532 141.225C282.532 142.943 282.36 144.274 281.991 144.446C280.797 145.005 278.16 143.725 275.42 143.407C272.679 143.089 267.86 143.012 266.58 142.247C265.3 141.483 258.669 140.692 259.124 139.223C259.262 138.76 259.64 137.677 260.112 136.346C261.357 136.587 262.587 136.897 263.797 137.273C266.142 138.004 268.444 138.845 270.824 139.447Z" fill="#F9EDCF"/>
<path d="M293.717 92.4068C294.094 90.3537 294.533 87.6049 295.014 85.3457C295.795 85.6721 296.594 85.9985 297.419 86.2906C298.672 86.767 299.996 87.034 301.336 87.0809C301.164 88.6787 300.855 90.5169 300.477 92.192C299.773 92.192 299.068 92.192 298.372 92.192C296.869 92.1491 295.28 92.3724 293.717 92.4068Z" fill="#F9EDCF"/>
<path d="M271.752 134.577C274.887 135.892 279.027 137.154 282.464 136.02C282.464 137.421 282.532 138.872 282.532 140.169C278.89 139.096 274.715 139.371 271.107 138.451C267.671 137.592 264.124 135.943 260.524 135.161C260.997 133.804 261.504 132.31 261.95 130.918C262.771 131.047 263.58 131.236 264.373 131.485C266.881 132.284 269.295 133.538 271.752 134.577Z" fill="#F9EDCF"/>
<path d="M240.191 88.5678C239.933 88.6966 239.254 89.1691 238.473 89.6072C238.403 89.3725 238.363 89.1302 238.352 88.8856C238.438 87.64 242.347 85.3379 244.022 85.3379C244.348 85.3379 244.726 85.8533 245.13 86.678C244.391 86.8669 243.661 87.0989 242.965 87.348C242.015 87.6932 241.088 88.1006 240.191 88.5678Z" fill="#F9EDCF"/>
<path d="M242.425 94.2202C241.718 94.5677 241.03 94.9519 240.363 95.3713C239.676 93.4729 239.092 91.7291 238.74 90.5093C239.289 90.1657 239.788 89.8049 240.174 89.5988C241.873 88.6885 243.692 88.0233 245.577 87.623C246.144 88.9803 246.754 90.7928 247.355 92.6053C246.454 92.8888 245.431 93.052 245.113 93.1551C244.191 93.4414 243.293 93.7975 242.425 94.2202Z" fill="#F9EDCF"/>
<path d="M240.723 96.3749C242.412 95.1654 244.303 94.2666 246.307 93.7206C246.642 93.6347 247.123 93.523 247.613 93.377C248.231 95.2238 248.841 96.9934 249.399 98.2218C246.874 98.4881 244.314 98.7372 241.806 99.2268C241.436 98.2733 241.067 97.3112 240.723 96.3749Z" fill="#F9EDCF"/>
<path d="M296.534 81.266C297.969 80.8623 299.171 80.9482 300.924 82.6233C301.456 83.1215 301.551 84.4959 301.413 86.2397C299.266 86.171 297.256 85.269 295.228 84.3671C295.641 82.6319 296.087 81.3949 296.534 81.266Z" fill="#F9EDCF"/>
<path d="M250.438 99.813C251.297 100.346 254.338 101.651 257.311 102.837H256.769C252.534 103.05 248.329 103.665 244.211 104.675C243.618 103.55 242.896 101.909 242.166 100.105C244.692 99.6068 247.269 99.3319 249.846 99.0742C249.984 99.363 250.186 99.6158 250.438 99.813Z" fill="#F9EDCF"/>
<path d="M277.654 114.062C280.411 114.311 283.048 115.024 285.771 115.462C285.644 115.874 285.583 116.303 285.591 116.734C285.533 117.974 285.366 119.207 285.093 120.419C281.769 118.6 278.072 117.565 274.287 117.395C270.584 117.163 266.306 118.452 262.759 117.137C262.667 116.559 262.547 115.985 262.398 115.419C264.846 114.981 267.234 114.328 269.734 114.096C272.367 113.844 275.018 113.833 277.654 114.062Z" fill="#F9EDCF"/>
<path d="M259.536 103.669C260.964 104.255 262.438 104.724 263.943 105.069C265.936 105.31 266.339 104.665 269.372 104.588C272.404 104.511 273.022 105.275 273.022 105.275C274.278 105.959 275.691 106.299 277.12 106.263C279.697 106.263 279.86 105.275 279.86 105.275C280.482 105.209 281.091 105.058 281.673 104.829C282.82 104.147 283.917 103.383 284.954 102.544C285.572 102.458 286.2 102.389 286.818 102.329C289.954 101.945 293.134 102.126 296.207 102.862C294.901 104.365 293.355 105.988 291.912 107.44C289.14 106.976 286.329 106.781 283.519 106.856C279.705 107.002 276.003 108.059 272.198 108.291C264.346 108.772 256.435 107.835 248.575 107.87C248.511 107.866 248.447 107.878 248.388 107.905C248.33 107.932 248.279 107.973 248.24 108.024C247.002 107.519 245.869 106.788 244.898 105.868C244.8 105.738 244.708 105.604 244.623 105.464C248.821 104.607 253.071 104.033 257.345 103.746C258.093 103.703 258.814 103.686 259.536 103.669Z" fill="#F9EDCF"/>
<path d="M271.924 109.262C275.738 109.056 279.44 108.016 283.246 107.827C285.875 107.765 288.505 107.931 291.105 108.325C289.302 110.172 287.884 111.598 287.747 111.873C287.498 112.38 286.673 113.359 286.123 114.536C285.006 114.373 283.881 114.115 282.687 113.883C280.344 113.404 277.965 113.116 275.575 113.024C273.03 112.915 270.48 113.03 267.955 113.368C265.969 113.567 264.009 113.97 262.105 114.57C262.013 114.245 261.838 113.95 261.598 113.711C260.739 113.033 254.563 110.894 249.942 108.832C253.489 109.013 257.054 109.038 260.593 109.142C264.382 109.262 268.161 109.451 271.924 109.262Z" fill="#F9EDCF"/>
<path d="M271.761 118.29C276.52 118.127 280.651 119.458 284.912 121.296C284.646 122.585 284.337 123.959 284.053 125.239C280.17 124.457 276.228 123.873 272.336 123.178C269.312 122.645 266.28 121.975 263.239 121.46C263.179 120.317 263.076 119.166 262.93 118.109C265.662 119.037 268.797 118.393 271.761 118.29Z" fill="#F9EDCF"/>
<path d="M283.804 126.098C283.511 127.409 283.121 128.695 282.635 129.947C282.595 130.031 282.566 130.121 282.55 130.213C278.864 130.711 275.36 128.607 271.821 127.327C269.063 126.328 266.162 125.783 263.23 125.712C263.298 124.66 263.312 123.605 263.273 122.551C266.417 123.118 269.596 123.547 272.722 124.106C276.382 124.724 280.084 125.514 283.804 126.098Z" fill="#F9EDCF"/>
<path d="M282.532 140.185C282.532 140.554 282.532 140.906 282.532 141.241C278.744 140.21 274.664 140.442 270.824 139.463C268.444 138.862 266.142 138.02 263.797 137.29C262.587 136.913 261.357 136.603 260.112 136.362C260.241 135.975 260.378 135.58 260.524 135.168C264.124 135.95 267.68 137.582 271.107 138.458C274.715 139.369 278.907 139.094 282.532 140.185Z" fill="#83A7B5"/>
<path d="M276.45 135.135C278.435 135.576 280.496 135.538 282.463 135.023V136.02C279.027 137.136 274.886 135.891 271.751 134.577C269.294 133.537 266.915 132.283 264.372 131.476C263.58 131.227 262.77 131.037 261.95 130.909C262.061 130.582 262.156 130.264 262.259 129.955C264.679 130.529 267.032 131.358 269.277 132.429C271.566 133.582 273.97 134.489 276.45 135.135Z" fill="#83A7B5"/>
<path d="M282.55 130.213C282.499 130.497 282.464 130.784 282.447 131.072C279.767 131.416 276.872 130.334 274.449 129.303C272.164 128.273 269.769 127.507 267.311 127.018C265.92 126.79 264.512 126.681 263.102 126.691C263.145 126.382 263.179 126.047 263.205 125.678C266.137 125.749 269.038 126.294 271.795 127.293C275.36 128.607 278.865 130.737 282.55 130.213Z" fill="#83A7B5"/>
<path d="M275.599 112.973C277.989 113.065 280.368 113.352 282.711 113.832C283.88 114.064 285.005 114.322 286.147 114.485C286.003 114.789 285.886 115.105 285.795 115.43C283.072 114.992 280.435 114.279 277.678 114.03C275.043 113.789 272.392 113.789 269.758 114.03C267.258 114.262 264.87 114.889 262.422 115.353C262.347 115.062 262.259 114.775 262.155 114.494C264.059 113.893 266.019 113.49 268.005 113.291C270.522 112.963 273.063 112.857 275.599 112.973Z" fill="#83A7B5"/>
<path d="M257.312 102.818C258.068 103.11 258.816 103.402 259.537 103.677C258.816 103.677 258.094 103.677 257.381 103.746C253.107 104.033 248.856 104.607 244.659 105.464C244.522 105.241 244.376 104.983 244.212 104.674C248.331 103.664 252.536 103.048 256.771 102.836L257.312 102.818Z" fill="#83A7B5"/>
<path d="M286.818 102.33C286.2 102.39 285.573 102.458 284.954 102.544C285.418 102.192 285.899 101.814 286.389 101.428C287.033 101.35 287.686 101.29 288.33 101.239C291.245 100.955 294.188 101.185 297.023 101.917C296.766 102.226 296.491 102.544 296.164 102.862C293.105 102.131 289.941 101.951 286.818 102.33Z" fill="#83A7B5"/>
<path d="M290.779 97.7153L291.5 97.0195C294.061 97.781 296.746 98.032 299.403 97.7583C299.403 97.9559 299.343 98.1362 299.326 98.2823C299.31 98.3931 299.284 98.5023 299.249 98.6087C296.466 99.0468 293.588 98.4025 290.779 97.7153Z" fill="#83A7B5"/>
<path d="M249.4 98.2051C249.533 98.4993 249.682 98.7861 249.847 99.0641C247.27 99.3218 244.693 99.5967 242.167 100.095L241.806 99.2359C244.315 98.7205 246.875 98.4714 249.4 98.2051Z" fill="#83A7B5"/>
<path d="M240.724 96.3769C240.595 96.0419 240.475 95.7155 240.363 95.3891C241.03 94.9696 241.718 94.5854 242.425 94.238C243.293 93.8152 244.192 93.4591 245.114 93.1728C245.431 93.0697 246.454 92.9065 247.356 92.623L247.613 93.379C247.124 93.525 246.643 93.6367 246.308 93.7226C244.303 94.2686 242.413 95.1674 240.724 96.3769Z" fill="#83A7B5"/>
<path d="M238.739 90.5089C238.636 90.1653 238.559 89.8561 238.499 89.6499C239.254 89.2118 239.933 88.7394 240.217 88.6105C241.122 88.1424 242.057 87.7349 243.017 87.3907C243.713 87.1416 244.443 86.9097 245.182 86.7207C245.319 86.9956 245.465 87.3134 245.603 87.6656C243.717 88.0659 241.898 88.7311 240.199 89.6413C239.787 89.8046 239.289 90.1653 238.739 90.5089Z" fill="#83A7B5"/>
<path d="M272.233 108.29C276.038 108.058 279.741 107.002 283.555 106.856C286.365 106.78 289.175 106.976 291.947 107.44L291.088 108.299C288.488 107.905 285.858 107.738 283.228 107.8C279.423 107.989 275.721 109.029 271.907 109.235C268.093 109.441 264.364 109.235 260.602 109.115C257.063 109.012 253.498 108.986 249.95 108.806C249.358 108.539 248.791 108.282 248.232 108.015C248.271 107.964 248.322 107.923 248.381 107.896C248.439 107.869 248.503 107.857 248.567 107.861C256.47 107.835 264.382 108.771 272.233 108.29Z" fill="#83A7B5"/>
<path d="M274.285 117.395C278.072 117.568 281.768 118.605 285.092 120.427C285.035 120.708 284.974 120.994 284.911 121.287C280.616 119.448 276.519 118.117 271.76 118.28C268.796 118.383 265.661 119.027 262.895 118.091C262.852 117.756 262.809 117.438 262.758 117.129C266.305 118.452 270.583 117.163 274.285 117.395Z" fill="#83A7B5"/>
<path d="M284.018 125.239C283.949 125.531 283.88 125.815 283.803 126.098C280.083 125.514 276.381 124.758 272.687 124.106C269.569 123.547 266.391 123.118 263.238 122.551C263.238 122.19 263.238 121.821 263.195 121.451C266.236 121.975 269.268 122.645 272.292 123.169C276.192 123.865 280.135 124.458 284.018 125.239Z" fill="#83A7B5"/>
<path d="M293.51 93.3253C293.562 93.0332 293.622 92.7326 293.682 92.4061C295.245 92.4061 296.835 92.1484 298.381 92.1484C299.077 92.1484 299.781 92.1484 300.485 92.1484C300.417 92.4749 300.356 92.8013 300.296 93.1191C299.351 93.059 298.415 93.0075 297.462 93.0246C296.216 93.0934 294.867 93.3081 293.51 93.3253Z" fill="#83A7B5"/>
<path d="M295.013 85.3465C295.082 85.0114 295.159 84.6764 295.228 84.3672C297.255 85.2262 299.266 86.1711 301.413 86.2398C301.413 86.5147 301.413 86.7982 301.336 87.0988C299.996 87.0519 298.672 86.7849 297.419 86.3085C296.594 85.9993 295.795 85.6729 295.013 85.3465Z" fill="#83A7B5"/>
<path d="M282.438 135.135C287.265 132.12 288.94 126.605 288.7 120.996C288.533 117.963 287.835 114.982 286.638 112.191C285.779 110.138 283.486 103.91 280.539 105.164C279.869 105.448 280.754 104.125 281.501 103.979C283.546 103.566 284.937 106.066 286.097 108.05C288.025 111.385 289.258 115.076 289.722 118.9C290.581 125.548 288.923 133.03 282.678 136.381C282.604 136.422 282.522 136.448 282.438 136.458V135.135Z" fill="#392833"/>
<path d="M255.551 134.835C262.26 132.722 270 129.337 272.147 121.95C273.264 118.127 272.259 114.133 271.091 110.439C270.558 108.721 270.111 106.694 268.857 105.362C267.414 103.825 265.516 103.696 264.261 105.113C264.261 105.113 264.021 105.113 263.737 105.045C263.454 104.976 263.179 104.916 263.179 104.916C264.828 102.27 269.046 102.82 270.67 105.672C271.635 107.621 272.371 109.677 272.86 111.796C273.606 114.18 273.96 116.669 273.908 119.167C273.401 128.822 263.987 133.546 255.869 136.098C255.096 136.338 254.761 135.084 255.551 134.835Z" fill="#392833"/>
<path d="M262.398 174.633C265.834 170.973 266.693 165.381 267.818 160.691C268.574 157.478 269.238 154.251 269.811 151.01C268.402 151.504 266.889 151.622 265.421 151.353C265.146 151.302 265.267 150.881 265.542 150.933C267.004 151.198 268.512 151.053 269.897 150.512V150.391C267.758 150.495 265.645 149.891 263.884 148.673C263.652 148.51 263.884 148.132 264.107 148.295C265.579 149.308 267.312 149.875 269.098 149.928C268.795 149.549 268.626 149.081 268.617 148.596C268.47 147.087 268.634 145.564 269.098 144.121C269.184 143.854 269.605 143.966 269.519 144.241C269.249 145.077 269.079 145.942 269.012 146.818C268.969 147.522 268.806 149.627 269.802 149.799C269.854 149.777 269.913 149.777 269.965 149.799H270.026C270.329 148.035 270.615 146.268 270.885 144.499C270.885 144.224 271.34 144.344 271.305 144.619C271.048 146.406 270.773 148.201 270.446 149.988C271.901 150.592 273.522 150.665 275.025 150.194C275.291 150.117 275.403 150.537 275.137 150.615C273.836 151.021 272.446 151.041 271.134 150.675C272.112 151.457 273.19 152.107 274.338 152.608C274.595 152.719 274.338 153.089 274.123 152.977C272.746 152.379 271.471 151.571 270.343 150.58C269.699 154.248 268.952 157.899 268.076 161.524C266.967 166.077 266.04 171.3 262.741 174.847C262.518 175.148 262.209 174.839 262.398 174.633Z" fill="#485D83"/>
<path d="M277.756 144.704C277.84 145.37 278.09 146.003 278.481 146.548C278.873 147.092 279.394 147.53 279.998 147.822C280.247 147.943 279.998 148.321 279.774 148.2C279.106 147.869 278.531 147.375 278.102 146.764C277.673 146.154 277.403 145.446 277.318 144.704C277.283 144.429 277.721 144.429 277.756 144.704Z" fill="#485D83"/>
<path d="M259.82 143.819C261.054 143.688 262.194 143.099 263.016 142.17C263.205 141.963 263.514 142.273 263.325 142.479C262.418 143.485 261.168 144.116 259.82 144.248C259.537 144.283 259.537 143.845 259.82 143.819Z" fill="#485D83"/>
<path d="M254.615 165.82C254.439 165.874 254.257 165.905 254.074 165.915C253.79 165.915 253.79 165.494 254.074 165.476C255.792 165.399 256.247 163.243 256.556 161.886C256.865 160.516 257.012 159.115 256.994 157.711C257.004 157.66 257.032 157.615 257.072 157.582C257.111 157.549 257.162 157.531 257.213 157.531C257.265 157.531 257.315 157.549 257.355 157.582C257.395 157.615 257.422 157.66 257.432 157.711C257.47 159.689 257.18 161.66 256.573 163.544C256.365 164.307 255.927 164.988 255.319 165.494C255.337 165.513 255.352 165.536 255.36 165.561C255.369 165.586 255.373 165.613 255.371 165.64C255.286 166.465 255.483 167.294 255.929 167.993C256.075 168.234 255.706 168.449 255.551 168.217C255.175 167.617 254.96 166.931 254.924 166.224C254.458 167.229 254.167 168.307 254.065 169.411C254.065 169.686 253.61 169.694 253.635 169.411C253.735 168.163 254.067 166.945 254.615 165.82Z" fill="#485D83"/>
<path d="M278.735 93.4979C278.81 93.8805 278.995 94.2328 279.267 94.5116C279.452 94.6763 279.603 94.8745 279.714 95.0957C279.8 95.309 279.804 95.5467 279.724 95.7625C279.645 95.9784 279.488 96.1571 279.285 96.2639C279.236 96.2858 279.181 96.289 279.131 96.2728C279.08 96.2566 279.037 96.2222 279.01 96.1762C278.984 96.1302 278.975 96.076 278.986 96.024C278.997 95.972 279.027 95.9258 279.07 95.8946C279.766 95.4651 279.01 94.9239 278.726 94.5459C278.517 94.2707 278.375 93.9499 278.314 93.6096C278.254 93.3433 278.675 93.2231 278.735 93.4979Z" fill="#E38474"/>
<path d="M277.361 97.1749C277.784 97.4355 278.278 97.5543 278.773 97.5142C279.267 97.474 279.736 97.2769 280.11 96.9516C280.325 96.7798 280.634 97.0805 280.42 97.2609C279.974 97.6513 279.416 97.89 278.827 97.9425C278.237 97.995 277.645 97.8586 277.138 97.5529C277.099 97.5186 277.073 97.4717 277.065 97.4202C277.057 97.3688 277.067 97.3161 277.093 97.2713C277.12 97.2264 277.161 97.1923 277.21 97.1747C277.259 97.1571 277.313 97.1572 277.361 97.1749Z" fill="#E38474"/>
<path d="M279.766 93.378C279.94 93.4141 280.12 93.4037 280.289 93.3479C280.458 93.2921 280.609 93.1929 280.728 93.0602C280.925 92.8626 281.192 93.1976 281.003 93.4038C280.842 93.5617 280.646 93.6797 280.431 93.7483C280.216 93.8169 279.988 93.8343 279.766 93.7989C279.482 93.7989 279.525 93.3264 279.766 93.378Z" fill="#392833"/>
<path d="M275.307 94.239C275.53 94.3449 275.78 94.3779 276.022 94.3331C276.264 94.2884 276.486 94.1682 276.656 93.9899C276.845 93.7837 277.189 94.0414 277 94.2476C276.773 94.503 276.471 94.6792 276.137 94.7503C275.803 94.8214 275.455 94.7837 275.144 94.6427C274.887 94.531 275.05 94.1273 275.307 94.239Z" fill="#392833"/>
<path d="M276.399 101.333C277.358 101.742 278.415 101.861 279.44 101.677C279.715 101.677 279.818 102.055 279.535 102.107C278.435 102.306 277.3 102.181 276.27 101.746C276.013 101.634 276.141 101.222 276.399 101.333Z" fill="#E38474"/>
</g>
<g clip-path="url(#clip2_593_6045)">
<path d="M570.32 134.787C570.32 134.787 568.15 139.167 568.302 139.871C568.455 140.576 568.799 143.427 568.174 143.282C567.55 143.138 567.518 140.936 567.045 140.84C566.573 140.744 563.61 145.989 563.098 145.645C562.585 145.3 565.123 141.681 564.491 141.593C563.858 141.505 561.704 145.108 561.104 144.596C560.503 144.083 563.274 141.393 563.098 140.904C562.921 140.416 560.551 143.771 559.959 143.162C559.366 142.554 562.361 139.583 562.513 139.159C562.665 138.734 559.983 140.384 559.935 139.959C559.887 139.535 560.984 138.63 562.145 137.613C563.306 136.596 564.355 135.852 565.051 135.211C565.748 134.57 568.062 132.32 568.062 132.32L570.32 134.787Z" fill="#EFA892"/>
<path d="M604.873 69.9277L602.887 75.4689L606.931 77.3026L608.204 72.4341L607.684 70.5283L604.873 69.9277Z" fill="#EFA892"/>
<path d="M626.085 157.952L626.662 160.827C627.211 160.618 627.818 160.618 628.368 160.827C628.57 160.886 628.767 160.959 628.96 161.043C629.705 161.363 630.45 163.205 631.218 165.047C631.218 165.127 631.29 165.215 631.322 165.303L631.466 165.655C631.523 165.784 631.579 165.904 631.627 166.032C632.251 167.489 632.892 168.786 633.572 169.147C633.925 169.392 634.355 169.5 634.782 169.451C634.862 169.436 634.939 169.403 635.006 169.355L635.102 169.259C635.174 169.179 635.238 169.091 635.294 169.019C635.537 168.697 635.659 168.3 635.638 167.898C635.678 165.96 634.109 162.396 633.653 161.243C633.196 160.09 631.547 155.422 630.009 155.038C629.879 155.014 629.746 155.014 629.617 155.038C629.518 155.047 629.422 155.069 629.329 155.102H629.232L629.024 155.182L628.856 155.262C627.884 155.893 627.03 156.69 626.334 157.616C626.182 157.816 626.085 157.952 626.085 157.952Z" fill="#83A7B5"/>
<path d="M604.047 127.316C604.047 127.316 612.295 132.241 614.785 134.523C617.275 136.805 623.929 138.807 626.684 140.665C629.439 142.523 630.071 143.067 628.157 143.539C626.244 144.012 625.979 142.843 623.489 144.693C620.999 146.542 619.197 148.088 615.482 148.088C611.766 148.088 609.876 148.344 606.673 150.322C603.47 152.3 597.913 153.773 595.095 153.453C592.276 153.132 592.156 151.155 588.32 150.642C584.485 150.13 581.57 141.401 582.427 138.951C583.284 136.501 582.683 137.422 583.964 135.116C584.559 133.928 585.426 132.897 586.495 132.108C587.563 131.319 588.804 130.794 590.114 130.575C593.149 129.999 604.047 127.316 604.047 127.316Z" fill="#F9EDCF"/>
<path d="M588.769 140.098C585.902 138.905 583.668 136.686 581.506 134.532C581.468 134.495 581.446 134.444 581.445 134.391C581.444 134.338 581.465 134.286 581.502 134.248C581.539 134.21 581.59 134.188 581.643 134.187C581.696 134.187 581.748 134.207 581.786 134.244C584.068 136.51 586.454 138.889 589.561 139.97C590.917 140.42 592.356 140.562 593.773 140.386C593.851 138.794 594.057 137.212 594.39 135.654C594.446 135.397 594.838 135.501 594.782 135.758C594.464 137.264 594.261 138.793 594.174 140.33C595.856 140.048 597.513 139.633 599.13 139.089C600.819 138.587 602.463 137.947 604.047 137.175C603.919 136.791 603.798 136.374 603.678 136.006C603.598 135.758 603.991 135.645 604.071 135.902C604.151 136.158 604.295 136.63 604.423 136.999C604.92 136.743 605.416 136.462 605.904 136.198C604.971 135.044 604.1 133.841 603.294 132.595L602.309 133.075C600.19 134.15 597.896 134.836 595.535 135.101C590.806 135.563 586.075 134.238 582.274 131.386C582.074 131.233 582.275 130.881 582.483 131.033C586.307 133.912 591.092 135.211 595.847 134.661C598.373 134.295 600.814 133.482 603.054 132.258L602.525 131.458C602.389 131.233 602.742 131.033 602.878 131.257C603.014 131.482 603.238 131.826 603.414 132.106C604.287 131.674 605.152 131.249 606.025 130.857L603.486 128.455C603.294 128.271 603.582 127.982 603.774 128.167C604.647 128.967 605.52 129.872 606.393 130.737C607.722 130.152 607.994 130.513 606.713 131.065C607.666 132.002 608.619 132.947 609.58 133.876C611.139 132.803 612.917 132.09 614.785 131.786C615.041 131.786 615.041 132.162 614.785 132.194C613.024 132.475 611.349 133.148 609.884 134.164C611.293 135.509 612.735 136.815 614.248 138.016C614.609 138.312 614.993 138.576 615.369 138.816C616.715 137.893 617.862 136.709 618.74 135.333C618.884 135.117 619.237 135.333 619.093 135.541C618.21 136.919 617.071 138.115 615.738 139.065C617.518 140.199 619.416 141.136 621.399 141.859L625.611 138.504C625.811 138.344 626.099 138.632 625.899 138.792L621.839 141.995C623.673 142.684 625.547 143.285 627.396 143.925C627.637 144.013 627.533 144.406 627.284 144.318C625.354 143.645 623.385 143.028 621.455 142.3C620.269 143.325 618.999 144.249 617.659 145.062C617.491 145.158 617.315 145.238 617.147 145.318C618.491 146.121 619.881 146.843 621.311 147.48C621.543 147.585 621.311 147.937 621.103 147.833C619.585 147.145 618.11 146.37 616.682 145.511C615.696 145.865 614.639 145.98 613.6 145.847C611.87 145.647 610.164 145.118 608.419 145.511C609.68 147.534 611.122 149.44 612.727 151.204C612.895 151.404 612.615 151.684 612.439 151.492C610.8 149.67 609.332 147.703 608.05 145.615C605.448 146.351 603.398 148.361 601.02 149.618C599.273 150.501 597.316 150.881 595.367 150.715C595.914 152.596 596.641 154.419 597.537 156.161C597.657 156.393 597.304 156.593 597.184 156.361C596.251 154.545 595.5 152.64 594.942 150.675C594.128 150.589 593.324 150.425 592.54 150.187C588.993 149.122 586.03 146.792 583.163 144.582C582.955 144.422 583.243 144.133 583.444 144.294C586.735 146.872 590.65 149.715 594.806 150.291C594.467 149.064 594.2 147.818 594.005 146.56C592.999 146.533 591.999 146.387 591.027 146.127C587.76 145.27 584.909 143.341 582.146 141.467C581.93 141.323 582.146 140.97 582.355 141.115C585.381 143.172 588.56 145.343 592.236 145.975C592.804 146.078 593.38 146.137 593.957 146.151C593.724 144.395 593.646 142.621 593.725 140.85C592.036 141.019 590.331 140.761 588.769 140.098ZM604.599 137.439C605 138.6 605.448 139.737 605.952 140.842C607.394 140.754 608.851 140.954 610.293 140.754C608.84 139.441 607.481 138.028 606.225 136.526C605.648 136.863 605.152 137.159 604.599 137.439ZM609.187 133.82L606.377 131.113C605.464 131.522 604.559 131.962 603.662 132.402C604.473 133.635 605.347 134.824 606.281 135.966C606.713 135.702 607.138 135.429 607.562 135.165C608.147 134.757 608.731 134.364 609.324 133.972L609.187 133.82ZM614.456 138.552C612.774 137.206 611.17 135.765 609.652 134.236C608.619 134.909 607.618 135.637 606.593 136.302C607.896 137.861 609.315 139.32 610.837 140.666C612.323 140.378 613.741 139.813 615.017 139.001C614.817 138.84 614.617 138.704 614.456 138.552ZM616.787 145.062C618.33 144.276 619.758 143.282 621.03 142.108H621.071C619.084 141.375 617.188 140.418 615.417 139.257C614.823 139.649 614.196 139.989 613.544 140.274C612.796 140.601 612.018 140.853 611.221 141.026C612.953 142.52 614.803 143.87 616.755 145.062H616.787ZM608.259 145.15C609.233 144.942 610.236 144.909 611.221 145.054C612.911 145.278 614.625 145.799 616.306 145.246C614.327 144.021 612.452 142.633 610.701 141.099L610.18 141.179C608.835 141.355 607.498 141.179 606.177 141.243C606.785 142.583 607.47 143.888 608.227 145.15H608.259ZM595.239 150.267C597.256 150.484 599.291 150.076 601.068 149.098C603.246 147.921 605.144 146.183 607.474 145.359C607.578 145.318 607.69 145.294 607.794 145.262C607.015 143.968 606.31 142.632 605.68 141.259C602.613 141.531 601.156 144.462 598.522 145.623C597.238 146.2 595.846 146.498 594.438 146.496C594.624 147.768 594.892 149.028 595.239 150.267ZM594.398 146.087C595.457 146.095 596.511 145.935 597.521 145.615C599.234 145.046 600.419 143.917 601.733 142.748C602.724 141.757 604.006 141.109 605.392 140.898H605.528C605.056 139.833 604.623 138.744 604.239 137.639C602.046 138.627 599.775 139.43 597.449 140.042C596.374 140.366 595.277 140.607 594.166 140.762C594.082 142.54 594.157 144.322 594.39 146.087H594.398Z" fill="#E9684A"/>
<path d="M591.749 181.151C591.925 182.447 591.89 183.764 591.645 185.05C591.641 185.09 591.641 185.13 591.645 185.17C591.645 185.258 591.645 185.354 591.605 185.443C591.605 185.443 591.605 185.507 591.605 185.547C591.605 185.587 591.605 185.635 591.605 185.675L591.533 186.187C591.301 187.789 591.629 189.478 592.334 190.063C592.436 190.15 592.556 190.213 592.686 190.247C592.773 190.267 592.863 190.267 592.95 190.247C593.07 190.231 593.184 190.19 593.287 190.127C593.385 190.078 593.477 190.016 593.559 189.943C595.04 188.718 598.051 178.436 596.938 177.323C596.838 177.217 596.728 177.12 596.61 177.035L596.522 176.971C596.434 176.905 596.343 176.843 596.249 176.786L596.161 176.738C595.525 176.387 594.854 176.102 594.16 175.89C593.575 175.705 593.151 175.609 593.151 175.609L590.132 178.692C590.446 179.058 590.74 179.44 591.013 179.837C591.337 180.226 591.586 180.671 591.749 181.151Z" fill="#F9EDCF"/>
<path d="M591.749 181.151C591.925 182.447 591.89 183.764 591.645 185.05C591.641 185.09 591.641 185.13 591.645 185.17C591.645 185.258 591.645 185.354 591.605 185.443C591.605 185.443 591.605 185.507 591.605 185.547C591.605 185.587 591.605 185.635 591.605 185.675L591.533 186.187C591.301 187.789 591.629 189.478 592.334 190.063C592.436 190.15 592.556 190.213 592.686 190.247C592.773 190.267 592.863 190.267 592.95 190.247C593.07 190.231 593.184 190.19 593.287 190.127C593.385 190.078 593.477 190.016 593.559 189.943C595.04 188.718 598.051 178.436 596.938 177.323C596.838 177.217 596.728 177.12 596.61 177.035L596.522 176.971C596.434 176.905 596.343 176.843 596.249 176.786L596.161 176.738C595.525 176.387 594.854 176.102 594.16 175.89C593.575 175.705 593.151 175.609 593.151 175.609L590.132 178.692C590.446 179.058 590.74 179.44 591.013 179.837C591.337 180.226 591.586 180.671 591.749 181.151Z" fill="#83A7B5"/>
<path d="M604.897 71.4631C604.897 71.4631 604.232 70.1659 603.88 69.5814C603.527 68.9968 602.759 66.2102 603.575 65.7939C603.747 65.69 603.943 65.635 604.144 65.635C604.344 65.635 604.541 65.69 604.712 65.7939C605.049 65.946 606.314 63.9922 607.171 63.9922C607.763 63.9922 607.835 64.2564 608.06 64.5447C608.284 64.833 608.788 64.6968 609.125 65.0972C609.461 65.4976 609.381 65.7218 609.381 65.7218C609.5 65.6621 609.636 65.6454 609.766 65.6746C609.896 65.7038 610.011 65.7771 610.093 65.8819C610.21 66.0512 610.269 66.2533 610.262 66.4585C610.262 66.4585 610.886 66.7868 610.742 67.2592C610.624 67.5608 610.488 67.855 610.334 68.14C610.334 68.2521 609.893 70.6384 609.125 71.4871C608.356 72.3359 608.644 71.8235 608.204 72.448C607.763 73.0726 607.723 73.2488 607.619 73.2488C607.515 73.2488 604.897 71.4631 604.897 71.4631Z" fill="#EFA892"/>
<path d="M577.351 84.6851C577.695 83.4263 578.458 82.3222 579.513 81.5542C581.17 80.4812 581.915 80.5933 583.693 80.0408C585.47 79.4883 586.007 78.3752 587.024 78.5594C588.041 78.7436 589.746 80.0488 589.874 81.2739C590.002 82.4991 590.427 84.3968 589.986 85.71C589.546 87.0233 590.315 87.0873 589.746 89.0011C589.178 90.9149 589.49 92.0759 588.345 93.4773C587.2 94.8786 587.368 94.8545 586.167 94.1739C584.966 93.4933 582.708 90.5225 582.644 90.3864C582.58 90.2503 577.351 84.6851 577.351 84.6851Z" fill="#392833"/>
<path d="M587.112 94.1572C587.112 94.1572 588.089 93.8689 588.537 94.4695C588.985 95.0701 589.738 95.7187 588.913 96.0149C588.089 96.3112 589.618 97.0159 589.017 97.4322C588.417 97.8486 587.328 98.3931 587.048 98.0969C586.501 97.419 586.043 96.6735 585.686 95.8788C585.572 95.1213 585.663 94.3469 585.951 93.6367C586.35 93.7823 586.738 93.9562 587.112 94.1572Z" fill="#AC725E"/>
<path d="M576.454 89.424C576.454 89.8244 576.454 90.3609 576.518 91.0255C576.518 91.0255 576.518 91.0255 576.518 91.0735C576.514 91.1429 576.514 91.2124 576.518 91.2817C576.518 91.3217 576.518 91.3538 576.518 91.3938V91.538C576.522 91.5564 576.522 91.5756 576.518 91.594C576.518 91.7061 576.518 91.8182 576.518 91.9303C576.68 93.9618 577.252 95.9393 578.199 97.7437C578.744 98.6646 579.16 99.5694 580.361 99.177C580.553 99.113 581.426 98.8327 581.787 99.0489C582.371 99.4093 583.997 105.359 581.787 104.358C581.668 104.358 581.551 104.392 581.45 104.456C581.35 104.52 581.269 104.611 581.218 104.718L580.938 104.854C579.953 105.303 580.537 106.856 581.514 106.456C581.636 106.639 581.821 106.771 582.035 106.824C582.639 106.999 583.275 107.029 583.893 106.912C585.638 107.329 588.825 106.288 589.658 105.887C591.163 105.159 593.045 103.685 593.261 101.964C593.438 101.483 593.541 100.978 593.566 100.466C593.574 100.376 593.574 100.285 593.566 100.194C593.616 100.086 593.639 99.9675 593.633 99.8486C593.626 99.7297 593.589 99.6143 593.526 99.5132C593.463 99.412 593.376 99.3283 593.272 99.2695C593.169 99.2108 593.052 99.179 592.933 99.177C592.092 99.177 591.251 99.5053 590.467 99.2731C589.894 99.1285 589.363 98.8546 588.913 98.4724C588.677 98.2864 588.457 98.0801 588.257 97.8558C587.349 96.8451 586.657 95.6598 586.223 94.3726C586.223 94.2925 586.175 94.2124 586.159 94.1404L586.391 93.788C587.456 92.1866 588.409 90.2247 586.855 89.0396C586.698 88.9115 586.502 88.8415 586.299 88.8415C586.096 88.8415 585.899 88.9115 585.742 89.0396C585.144 88.5939 584.647 88.0262 584.285 87.3741C584.223 87.2398 584.129 87.1231 584.01 87.0345C583.892 86.9459 583.753 86.8883 583.607 86.8668C583.46 86.8454 583.311 86.8607 583.172 86.9116C583.033 86.9624 582.909 87.047 582.812 87.1579C581.865 87.0507 580.906 87.149 580.001 87.4462C579.203 87.7019 578.458 88.0978 577.799 88.6152C577.687 88.5165 577.551 88.4508 577.404 88.4255C577.257 88.4002 577.106 88.4163 576.968 88.4721C576.83 88.5278 576.71 88.6209 576.622 88.741C576.534 88.8611 576.481 89.0033 576.47 89.1517C576.457 89.2419 576.452 89.3329 576.454 89.424Z" fill="#EFA892"/>
<path d="M574.42 87.8386C574.812 87.0379 574.131 86.6215 574.195 85.6686C574.26 84.7157 575.797 85.4044 576.005 84.8679C576.213 84.3314 576.886 83.8269 578.544 84.1152C580.201 84.4034 580.537 85.3403 581.41 85.2522C582.283 85.1641 582.355 85.8688 583.268 86.5414C584.181 87.214 584.469 86.8537 584.933 87.158C585.236 87.3843 585.47 87.689 585.611 88.0391C585.752 88.3892 585.795 88.7713 585.734 89.1438C585.78 89.39 585.768 89.6435 585.699 89.8841C585.629 90.1247 585.504 90.3456 585.334 90.5291C584.773 90.9775 584.637 90.385 584.693 89.4802C584.709 89.3552 584.709 89.2288 584.693 89.1038C584.29 89.098 583.897 88.9726 583.564 88.7435C583.457 88.6132 583.379 88.4613 583.337 88.2982C583.294 88.1351 583.287 87.9647 583.316 87.7986C582.814 87.6112 582.274 87.5526 581.743 87.6282C581.213 87.7037 580.711 87.911 580.281 88.231C579.008 89.1919 577.983 88.8876 576.878 89.1438C575.773 89.4001 575.012 89.9446 574.428 89.6323C573.563 89.1118 574.051 88.6634 574.42 87.8386Z" fill="#AC725E"/>
<path d="M607.731 75.6343C607.202 75.2179 606.361 75.2099 605.168 74.7855C603.975 74.3611 603.383 73.1841 602.358 74.1049C601.333 75.0258 600.612 78.493 600.012 80.1105C599.411 81.728 598.626 83.4816 598.034 85.4034C597.441 87.3252 595.191 92.6101 593.229 95.2686C591.267 97.927 590.827 97.4306 589.698 99.008C588.643 100.734 586.981 102.002 585.038 102.563C583.484 103.008 581.996 103.654 580.61 104.485C579.809 104.853 578.904 104.845 577.799 106.375C576.129 108.877 574.98 111.691 574.42 114.647C574.163 116.741 573.677 118.8 572.97 120.788C572.29 122.39 572.418 125.393 570.456 127.442C568.494 129.492 566.02 132.383 565.764 133.048C565.508 133.712 568.446 136.09 569.247 137.34C569.904 138.357 570.792 136.971 571.649 136.114C572.506 135.258 575.829 130.405 576.982 128.612C578.143 126.496 579.044 124.249 579.665 121.917C579.793 121.117 581.058 118.434 581.482 119.515C581.907 120.596 582.563 121.509 582.651 123.303C582.74 125.096 583.772 127.138 584.253 129.356C584.733 131.574 585.006 134.809 585.478 135.834C585.951 136.859 592.437 138.236 595.247 137.628C598.058 137.019 600.844 135.794 603.807 135.458C606.77 135.122 607.218 131.454 605.849 129.052C604.48 126.65 602.95 120.444 602.446 117.97C601.941 115.495 601.245 112.084 600.74 110.21C600.367 108.428 600.286 106.597 600.5 104.789C600.721 101.982 601.192 99.2006 601.909 96.4777C602.71 93.6671 605.256 87.101 605.913 84.8829C606.57 82.6649 607.45 77.7643 607.707 76.8755C607.963 75.9867 607.979 75.8345 607.731 75.6343Z" fill="#6E81BF"/>
<path d="M578.528 95.3022C578.576 95.2382 580.931 94.4615 581.043 94.5015C581.155 94.5415 581.339 94.5816 581.275 94.7417C581.18 95.0065 581.026 95.2461 580.825 95.4424C580.623 95.6387 580.38 95.7865 580.112 95.8745C579.845 95.9625 579.562 95.9885 579.283 95.9503C579.004 95.9122 578.738 95.8111 578.504 95.6546C578.467 95.6407 578.435 95.6152 578.414 95.5818C578.392 95.5485 578.382 95.5091 578.385 95.4694C578.388 95.4298 578.403 95.3921 578.429 95.362C578.455 95.3319 578.49 95.3109 578.528 95.3022Z" fill="#FEFEFE"/>
<path d="M567.823 156.943C568.247 155.158 577.544 145.348 578.993 143.475C580.443 141.601 583.558 139.127 585.239 137.333C586.921 135.539 587.777 134.779 587.777 134.779L605.394 132.641C606.315 134.231 606.896 135.995 607.099 137.821C607.356 140.664 609.229 148.079 609.406 149.953C610.041 153.543 610.951 157.079 612.128 160.531C612.729 161.804 612.472 162.933 614.01 162.829C615.547 162.725 615.371 162.148 618.614 161.123C621.857 160.098 623.731 157.456 625.02 157.376C625.467 157.346 625.915 157.426 626.325 157.608C626.656 157.741 626.95 157.952 627.183 158.222C627.415 158.492 627.58 158.814 627.662 159.161C627.691 159.314 627.734 159.464 627.791 159.61L627.847 159.746C627.991 160.082 628.183 160.434 628.343 160.803C628.529 161.106 628.635 161.452 628.65 161.808C628.666 162.164 628.59 162.518 628.431 162.837C627.63 164.022 626.894 165.727 624.676 166.92C622.458 168.114 621.353 168.114 617.765 170.924C614.178 173.735 612.16 175.104 610.438 175.104C608.717 175.104 607.484 172.285 606.571 171.1C605.658 169.915 602.247 162.404 601.654 160.186C601.062 157.968 597.386 148.335 596.369 147.735C595.352 147.134 585.96 152.851 584.358 153.876C582.757 154.901 578.393 156.094 578.225 157.632C578.056 159.169 581.331 161.98 583.189 163.685C585.047 165.391 588.538 171.445 590.396 172.726C592.254 174.007 595.425 174.255 594.143 175.873V175.921C593.511 176.722 592.758 177.907 591.957 178.852L591.861 178.956C591.617 179.244 591.349 179.512 591.06 179.756C590.852 179.965 590.601 180.126 590.325 180.229C590.048 180.333 589.753 180.376 589.459 180.357C587.793 180.101 584.55 175.408 582.845 174.135C581.139 172.862 573.636 167.137 572.435 165.519C571.234 163.902 567.399 158.737 567.823 156.943Z" fill="#392833"/>
<path d="M594.952 134.938C595.121 134.998 595.295 135.041 595.473 135.066L595.905 135.122H595.993H596.426H597.899H598.764L600.117 135.042H600.205H600.574L601.462 134.97H601.751L602.752 134.866H603.04C603.616 134.802 604.177 134.73 604.689 134.65H604.802H605.042H605.234L605.923 134.521L606.195 134.457C606.542 134.391 606.88 134.286 607.204 134.145C608.541 133.512 608.541 130.942 608.541 130.942C608.541 130.942 608.541 130.774 608.477 130.518C608.477 130.43 608.437 130.334 608.413 130.229C608.416 130.192 608.416 130.155 608.413 130.117C608.375 129.951 608.324 129.788 608.261 129.629C608.261 129.557 608.205 129.485 608.173 129.413C608.141 129.341 608.101 129.245 608.061 129.164C607.914 128.852 607.698 128.578 607.428 128.364C607.14 128.148 606.187 128.228 604.938 128.476H604.729H604.665H604.481H604.305L603.881 128.572C603.288 128.708 602.664 128.868 602.039 129.044L601.743 129.124L600.574 129.469L600.301 129.557L598.7 130.077L598.316 130.213L597.675 130.446L597.467 130.526L597.299 130.59L597.018 130.702C596.783 130.797 596.554 130.904 596.33 131.022C596.164 131.108 596.008 131.213 595.865 131.334C595.751 131.433 595.644 131.54 595.545 131.655L595.489 131.727C595.367 131.884 595.264 132.057 595.185 132.239L595.113 132.415C595.071 132.512 595.036 132.611 595.008 132.712C594.978 132.803 594.954 132.897 594.936 132.992C594.895 133.182 594.866 133.375 594.848 133.569C594.837 133.694 594.837 133.82 594.848 133.945V134.065C594.848 134.065 594.152 134.618 594.952 134.938Z" fill="#F9EDCF"/>
<path d="M591.789 135.795C591.788 135.886 591.81 135.976 591.852 136.057C591.893 136.138 591.954 136.207 592.029 136.259L592.173 136.356L592.398 136.452C592.933 136.603 593.492 136.66 594.047 136.62C594.388 136.609 594.727 136.577 595.064 136.524L595.617 136.404C595.816 136.357 596.005 136.272 596.171 136.153C596.337 136.033 596.478 135.881 596.585 135.707C596.684 135.536 596.767 135.356 596.834 135.17C596.914 134.954 596.994 134.714 597.082 134.442C597.17 134.169 597.202 134.097 597.282 133.913C597.378 133.717 597.408 133.496 597.369 133.281C597.33 133.067 597.224 132.87 597.066 132.72C596.962 132.619 596.85 132.528 596.73 132.448C596.564 132.321 596.39 132.206 596.209 132.104L595.913 131.935L595.464 131.679L595.232 131.535H595.168C594.956 131.368 594.71 131.247 594.448 131.182C594.186 131.118 593.912 131.109 593.647 131.159C593.542 131.183 593.44 131.217 593.342 131.263C593.246 131.311 593.142 131.359 593.038 131.423C592.934 131.487 592.782 131.591 592.646 131.695L592.454 131.855C592.381 131.91 592.311 131.969 592.245 132.032C592.173 132.093 592.108 132.163 592.053 132.24C591.931 132.406 591.859 132.603 591.845 132.808C591.849 133.2 591.963 133.583 592.173 133.913C592.194 133.952 592.219 133.99 592.245 134.025C592.174 134.19 592.113 134.358 592.061 134.53C591.97 134.847 591.906 135.171 591.869 135.499C591.838 135.596 591.811 135.695 591.789 135.795Z" fill="#F9EDCF"/>
<path d="M594.599 135.161C594.599 135.161 594.807 135.706 595.087 136.515C595.344 137.235 595.664 138.164 595.976 139.093C595.976 139.197 596.04 139.301 596.08 139.405C596.16 139.654 596.241 139.91 596.313 140.15C596.33 140.192 596.343 140.234 596.353 140.278C596.369 140.32 596.382 140.363 596.393 140.406C596.393 140.494 596.449 140.575 596.473 140.663C596.537 140.895 596.609 141.119 596.665 141.335C596.796 141.803 596.954 142.263 597.137 142.712L597.233 142.969C597.426 143.449 597.642 143.946 597.874 144.442C597.874 144.522 597.946 144.61 597.986 144.69C598.13 144.995 598.274 145.291 598.419 145.579L598.571 145.891C598.595 145.95 598.625 146.006 598.659 146.06C599.04 146.889 599.522 147.669 600.092 148.382C600.42 148.678 601.582 148.23 602.759 147.581L602.887 147.509L603.063 147.413H603.127L603.239 147.349L603.319 147.301C604.103 146.865 604.825 146.327 605.465 145.699C606.146 144.899 604.953 144.602 604.04 143.753L603.872 143.585C603.726 143.431 603.597 143.262 603.487 143.081L603.447 143.001C603.375 142.884 603.313 142.761 603.263 142.632C603.263 142.632 603.207 142.48 603.175 142.408C603.093 142.146 603.029 141.878 602.983 141.607C602.983 141.495 602.943 141.367 602.919 141.247C602.811 140.367 602.596 139.504 602.278 138.677C602.278 138.597 602.214 138.509 602.182 138.421L602.11 138.268V138.212C602.074 138.119 602.031 138.028 601.982 137.94C601.982 137.892 601.982 137.852 601.926 137.812C601.191 136.598 600.089 135.65 598.779 135.105C598.435 134.937 598.106 134.793 597.802 134.681L597.498 134.561L597.121 134.425L596.593 134.265L596.168 134.145L595.536 134.553L595.288 134.705L594.991 134.905L594.599 135.161Z" fill="#F9EDCF"/>
<path d="M583.076 146.205C583.156 146.301 583.244 146.389 583.332 146.485C583.469 146.616 583.613 146.739 583.764 146.854C583.877 146.941 583.994 147.021 584.117 147.094L584.189 147.142L584.413 147.27C584.905 147.54 585.453 147.694 586.014 147.718C586.544 147.706 587.066 147.588 587.55 147.372C588.034 147.156 588.47 146.847 588.833 146.461L589.025 146.269C589.27 146.016 589.5 145.749 589.714 145.468L589.882 145.236C589.905 145.205 589.927 145.173 589.946 145.14L590.17 144.804C590.346 144.531 590.507 144.251 590.659 144.003L590.827 143.707L590.987 143.434C591.58 142.449 592.228 141.561 592.765 140.688C592.845 140.56 592.917 140.44 592.981 140.319L593.077 140.159C593.125 140.087 593.157 140.015 593.197 139.943L593.245 139.847C593.298 139.756 593.346 139.663 593.389 139.567C593.481 139.385 593.561 139.198 593.629 139.006C593.888 138.252 594.039 137.465 594.078 136.668C594.113 136.079 594.113 135.488 594.078 134.898H592.733L592.444 135.051L592.284 135.139L591.796 135.427C591.218 135.788 590.667 136.189 590.146 136.628C589.773 136.95 589.423 137.298 589.097 137.669L588.929 137.885C588.673 138.21 588.453 138.562 588.272 138.934L588.2 139.078C588.152 139.182 588.088 139.295 588.032 139.399L587.832 139.743C587.516 140.237 587.154 140.701 586.751 141.128L586.559 141.328L586.231 141.633C586.164 141.703 586.092 141.767 586.014 141.825C585.981 141.864 585.943 141.899 585.902 141.929L585.558 142.217C584.788 142.818 583.986 143.377 583.156 143.891C583.041 143.971 582.933 144.062 582.835 144.163C582.759 144.255 582.692 144.354 582.635 144.459C582.54 144.763 582.531 145.086 582.609 145.394C582.687 145.702 582.848 145.983 583.076 146.205Z" fill="#F9EDCF"/>
<path d="M604.945 68.0926C604.95 68.0693 604.961 68.0477 604.977 68.0301C604.993 68.0124 605.014 67.9993 605.036 67.992C605.059 67.9847 605.083 67.9835 605.106 67.9885C605.13 67.9935 605.151 68.0045 605.169 68.0205C605.368 68.2206 605.613 68.3691 605.882 68.4529H606.194C606.426 68.3889 606.506 68.2527 606.426 68.0526C606.416 67.8594 606.329 67.6782 606.186 67.5481C605.837 67.1457 605.442 66.7856 605.009 66.4751C604.873 66.379 605.009 66.1388 605.145 66.2429C605.481 66.4812 605.794 66.7492 606.082 67.0436C606.405 66.8887 606.683 66.6548 606.892 66.3637C607.1 66.0726 607.232 65.7336 607.275 65.3781C607.275 65.2099 607.563 65.2099 607.547 65.3781C607.504 65.7696 607.366 66.1446 607.144 66.4699C606.922 66.7953 606.623 67.061 606.274 67.2438L606.33 67.3079C606.532 67.4947 606.678 67.7327 606.755 67.9965H606.811C607.154 67.8962 607.467 67.7119 607.722 67.4603C607.976 67.2086 608.164 66.8976 608.268 66.5552C608.278 66.5201 608.301 66.4903 608.332 66.4723C608.364 66.4543 608.401 66.4495 608.436 66.4591C608.471 66.4686 608.501 66.4917 608.519 66.5233C608.537 66.5548 608.542 66.5922 608.532 66.6272C608.438 66.9365 608.282 67.2235 608.075 67.4712C607.867 67.7189 607.611 67.922 607.323 68.0686C607.335 68.0995 607.335 68.1337 607.323 68.1647C607.251 68.6932 607.812 68.8373 608.188 68.7332C608.404 68.6649 608.602 68.547 608.764 68.3889C609.057 68.1189 609.256 67.7627 609.333 67.3719C609.373 67.2038 609.629 67.2758 609.589 67.444C609.525 67.7823 609.377 68.0988 609.157 68.3636C608.937 68.6283 608.653 68.8327 608.332 68.9574C608.571 69.0776 608.847 69.1005 609.102 69.0214C609.358 68.9422 609.572 68.7672 609.701 68.533C609.789 68.3889 610.022 68.533 609.934 68.6691C609.842 68.8275 609.72 68.9656 609.573 69.0748C609.427 69.184 609.26 69.2621 609.082 69.3041C608.904 69.3461 608.719 69.3512 608.539 69.3191C608.36 69.2871 608.188 69.2185 608.036 69.1175C608.009 69.0973 607.99 69.0693 607.98 69.0375C607.86 69.056 607.738 69.0472 607.622 69.0117C607.506 68.9762 607.4 68.9149 607.311 68.8324C607.223 68.75 607.154 68.6485 607.11 68.5356C607.067 68.4227 607.049 68.3013 607.059 68.1807C606.994 68.2095 606.927 68.2336 606.859 68.2527C606.84 68.267 606.818 68.2748 606.795 68.2748C606.771 68.2748 606.749 68.267 606.731 68.2527C606.731 68.2527 606.731 68.3088 606.731 68.3408C606.71 68.4239 606.672 68.5019 606.619 68.5697C606.567 68.6375 606.501 68.6939 606.426 68.7352C606.351 68.7765 606.268 68.8019 606.183 68.8098C606.097 68.8178 606.011 68.808 605.93 68.7812C606.176 69.0781 606.351 69.4269 606.443 69.8014C606.534 70.176 606.54 70.5664 606.458 70.9432C606.418 71.1194 606.162 71.0473 606.194 70.8792C606.302 70.3834 606.24 69.8657 606.018 69.4095C605.795 68.9533 605.426 68.5853 604.969 68.3648C604.951 68.3664 604.933 68.3645 604.916 68.3591C604.899 68.3537 604.883 68.345 604.869 68.3335C604.855 68.3219 604.844 68.3078 604.836 68.2919C604.827 68.276 604.822 68.2586 604.821 68.2407C604.819 68.2229 604.821 68.2048 604.827 68.1877C604.832 68.1706 604.841 68.1547 604.852 68.141C604.864 68.1272 604.878 68.1158 604.894 68.1076C604.91 68.0993 604.927 68.0942 604.945 68.0926Z" fill="#E38474"/>
<path d="M579.73 90.8669C579.917 90.6332 580.168 90.4588 580.452 90.365C580.737 90.2711 581.042 90.2619 581.332 90.3384C581.588 90.4025 581.476 90.7868 581.219 90.7308C581.005 90.6815 580.781 90.6945 580.574 90.7683C580.367 90.842 580.185 90.9735 580.05 91.1472C579.85 91.3554 579.57 91.0671 579.73 90.8669Z" fill="#392833"/>
<path d="M576.559 91.4663V91.5144C576.563 91.5328 576.563 91.552 576.559 91.5704C576.559 91.6825 576.559 91.7946 576.559 91.9067C576.683 91.8163 576.83 91.7605 576.983 91.7451C577.136 91.7296 577.291 91.755 577.431 91.8186C577.672 91.9227 577.776 91.5304 577.536 91.4263C577.378 91.3669 577.211 91.3399 577.043 91.3468C576.875 91.3536 576.71 91.3943 576.559 91.4663Z" fill="#392833"/>
<path d="M577.968 91.5216C577.888 91.2733 578.28 91.1692 578.36 91.4175C578.476 91.7712 578.476 92.1528 578.36 92.5065C578.2 93.083 577.984 93.8437 578.793 93.9879C579.049 94.0359 578.945 94.4203 578.688 94.3802C578.479 94.3496 578.283 94.2571 578.126 94.1144C577.969 93.9717 577.858 93.7855 577.808 93.5795C577.624 92.8668 578.208 92.2262 577.968 91.5216Z" fill="#E38474"/>
<path d="M590.187 99.1855C591.123 100.622 592.336 101.857 593.755 102.82C595.174 103.782 596.77 104.452 598.451 104.791C598.707 104.847 598.595 105.239 598.339 105.183C596.606 104.826 594.961 104.127 593.501 103.128C592.041 102.128 590.795 100.848 589.835 99.3617C589.691 99.1775 590.043 98.9613 590.187 99.1855Z" fill="#485D83"/>
<path d="M589.995 101.427C592.488 103.939 595.865 105.376 599.404 105.431C599.451 105.44 599.493 105.466 599.524 105.503C599.555 105.54 599.571 105.587 599.571 105.635C599.571 105.683 599.555 105.73 599.524 105.767C599.493 105.804 599.451 105.83 599.404 105.839C595.759 105.78 592.281 104.304 589.707 101.723C589.523 101.523 589.811 101.243 589.995 101.427Z" fill="#485D83"/>
<path d="M578.425 108.713C578.551 109.903 578.848 111.068 579.306 112.172C578.938 110.234 578.825 108.255 578.97 106.287C578.97 106.031 579.394 106.023 579.378 106.287C579.068 110.447 579.936 114.61 581.885 118.298C581.911 118.345 581.918 118.4 581.904 118.452C581.89 118.504 581.855 118.548 581.809 118.574C581.762 118.601 581.707 118.608 581.655 118.594C581.603 118.579 581.559 118.545 581.532 118.498C580.727 116.972 580.096 115.361 579.651 113.694C579.628 113.688 579.607 113.677 579.589 113.661C579.571 113.646 579.556 113.627 579.546 113.606C578.721 112.085 578.202 110.418 578.017 108.697C578.001 108.457 578.425 108.457 578.425 108.713Z" fill="#485D83"/>
<path d="M583.084 121.304C586.958 125.436 592.02 128.262 597.57 129.391C597.826 129.439 597.714 129.832 597.458 129.783C591.84 128.643 586.716 125.783 582.796 121.6C582.62 121.384 582.908 121.111 583.084 121.304Z" fill="#485D83"/>
<path d="M581.923 98.5135C582.82 98.1689 583.585 97.5495 584.109 96.7439C584.253 96.5197 584.605 96.7439 584.461 96.9441C583.885 97.8333 583.045 98.5195 582.059 98.9059C581.787 99.002 581.675 98.6096 581.923 98.5135Z" fill="#E38474"/>
<path d="M633.546 164.558C632.889 164.987 632.192 165.352 631.464 165.647C631.52 165.775 631.577 165.896 631.625 166.024C632.336 165.723 633.022 165.364 633.674 164.951C634.223 166.382 634.667 167.851 635.004 169.347L635.1 169.251C635.172 169.171 635.236 169.083 635.292 169.01C634.179 164.054 631.737 159.522 629.23 155.102L629.022 155.182L628.854 155.262C630.643 158.242 632.211 161.349 633.546 164.558Z" fill="#6E81BF"/>
<path d="M630.64 161.789V161.741L630.688 161.685C630.705 161.648 630.732 161.617 630.766 161.594C630.8 161.571 630.839 161.559 630.88 161.557C630.914 161.556 630.947 161.565 630.977 161.582C631.007 161.599 631.031 161.623 631.048 161.653C631.086 161.682 631.117 161.719 631.139 161.762C631.16 161.806 631.171 161.853 631.171 161.901C631.171 161.949 631.16 161.996 631.139 162.039C631.117 162.082 631.086 162.12 631.048 162.149C631.015 162.184 630.972 162.208 630.925 162.218C630.877 162.228 630.828 162.223 630.784 162.205C630.711 162.167 630.656 162.103 630.629 162.026C630.602 161.948 630.606 161.864 630.64 161.789Z" fill="#6E81BF"/>
<path d="M629.463 160.419C629.482 160.395 629.507 160.376 629.535 160.363C629.562 160.35 629.592 160.344 629.623 160.344C629.654 160.344 629.684 160.35 629.711 160.363C629.739 160.376 629.764 160.395 629.783 160.419C629.825 160.443 629.858 160.479 629.879 160.523C629.899 160.56 629.91 160.601 629.912 160.643C629.914 160.686 629.906 160.727 629.89 160.766C629.874 160.805 629.85 160.84 629.819 160.869C629.788 160.897 629.751 160.919 629.711 160.931C629.675 160.946 629.635 160.951 629.596 160.947C629.557 160.942 629.52 160.928 629.488 160.906C629.455 160.884 629.429 160.854 629.41 160.82C629.392 160.785 629.383 160.746 629.383 160.707C629.367 160.683 629.357 160.657 629.353 160.629C629.349 160.601 629.351 160.572 629.358 160.545C629.366 160.518 629.379 160.493 629.397 160.471C629.415 160.449 629.437 160.431 629.463 160.419Z" fill="#6E81BF"/>
<path d="M594.07 185.754C593.548 187.233 592.947 188.681 592.268 190.094C592.37 190.182 592.491 190.245 592.62 190.279C594.62 186.111 595.955 181.655 596.576 177.074L596.488 177.01C596.401 176.944 596.31 176.883 596.216 176.826C595.833 179.728 595.162 182.585 594.214 185.354C593.348 185.384 592.481 185.325 591.628 185.178C591.628 185.266 591.628 185.362 591.588 185.45C591.588 185.45 591.588 185.514 591.588 185.554C592.407 185.696 593.238 185.763 594.07 185.754Z" fill="#6E81BF"/>
<path d="M592.181 180.285C592.202 180.206 592.248 180.136 592.313 180.087C592.377 180.037 592.456 180.01 592.538 180.01C592.619 180.01 592.698 180.037 592.763 180.087C592.827 180.136 592.873 180.206 592.894 180.285C592.905 180.323 592.904 180.363 592.891 180.4C592.878 180.438 592.854 180.47 592.822 180.493C592.804 180.531 592.779 180.566 592.75 180.597C592.697 180.644 592.63 180.674 592.56 180.682C592.489 180.69 592.418 180.676 592.356 180.641C592.293 180.607 592.243 180.555 592.212 180.491C592.181 180.427 592.17 180.355 592.181 180.285Z" fill="#6E81BF"/>
<path d="M592.525 182.535C592.521 182.5 592.521 182.465 592.525 182.431C592.525 182.431 592.525 182.383 592.525 182.359C592.533 182.326 592.548 182.296 592.569 182.271C592.591 182.246 592.618 182.226 592.649 182.215C592.68 182.203 592.714 182.199 592.747 182.203C592.779 182.207 592.811 182.219 592.838 182.239H592.926C592.942 182.234 592.958 182.234 592.974 182.239H593.014C593.055 182.271 593.089 182.312 593.112 182.359C593.135 182.407 593.147 182.458 593.147 182.511C593.147 182.564 593.135 182.615 593.112 182.663C593.089 182.71 593.055 182.751 593.014 182.783C592.98 182.806 592.939 182.819 592.898 182.819C592.856 182.819 592.816 182.806 592.782 182.783C592.751 182.783 592.721 182.773 592.696 182.756C592.67 182.739 592.65 182.715 592.638 182.687C592.585 182.65 592.545 182.597 592.525 182.535Z" fill="#6E81BF"/>
<path d="M606.643 133.585C607.249 133.429 607.773 133.049 608.109 132.521C608.445 131.993 608.568 131.357 608.453 130.742C608.405 130.486 608.797 130.382 608.845 130.638C608.984 131.356 608.845 132.099 608.457 132.719C608.069 133.338 607.461 133.788 606.755 133.977C606.703 133.992 606.647 133.986 606.6 133.959C606.553 133.933 606.518 133.889 606.503 133.837C606.488 133.785 606.495 133.729 606.521 133.682C606.547 133.635 606.591 133.6 606.643 133.585Z" fill="#E9684A"/>
<path d="M583.557 136.452C583.603 136.676 583.71 136.884 583.867 137.05C584.024 137.217 584.224 137.337 584.446 137.397C584.694 137.469 584.59 137.861 584.342 137.789C584.057 137.713 583.798 137.562 583.591 137.352C583.384 137.142 583.237 136.881 583.165 136.596C583.109 136.308 583.501 136.195 583.557 136.452Z" fill="#E9684A"/>
<path d="M585.558 142.201L585.903 141.913C586.699 142.241 587.473 142.624 588.217 143.058C589.095 142.128 589.861 141.099 590.499 139.991H590.411C589.583 139.926 588.771 139.726 588.009 139.398C588.065 139.294 588.129 139.182 588.177 139.078C588.953 139.436 589.79 139.648 590.643 139.703C591.236 138.605 591.703 137.445 592.036 136.243C592.1 136.011 592.164 135.771 592.212 135.531L592.309 135.09C592.373 134.754 592.429 134.418 592.477 134.073L592.012 134.41L591.812 134.562C590.926 135.204 589.863 135.556 588.769 135.571H588.521C588.385 136.131 588.289 136.692 588.153 137.244H587.993L587.736 137.3C587.896 136.732 587.993 136.131 588.121 135.547C587.228 135.563 586.334 135.522 585.446 135.427C585.534 136.155 585.598 136.884 585.614 137.613H585.518H585.246C585.246 136.86 585.158 136.099 585.07 135.339C584.445 135.274 583.829 135.178 583.212 135.058C583.221 134.921 583.237 134.785 583.26 134.65C583.837 134.754 584.429 134.842 585.014 134.914C584.886 133.913 584.718 132.912 584.549 131.919C584.618 131.876 584.694 131.847 584.774 131.831H584.942C585.118 132.872 585.294 133.921 585.43 134.978C586.369 135.074 587.313 135.114 588.257 135.098C588.305 134.93 588.353 134.754 588.417 134.586C588.708 133.782 589.07 133.004 589.498 132.264L589.914 132.344C589.407 133.214 588.991 134.135 588.673 135.09C589.952 135.025 591.175 134.544 592.156 133.721L592.381 133.545L592.573 133.401C592.573 133.182 592.589 132.966 592.621 132.752C592.621 132.336 592.621 131.951 592.621 131.495C592.757 131.391 592.885 131.303 593.013 131.223C593.04 131.756 593.04 132.291 593.013 132.824C593.013 132.912 593.013 132.992 593.013 133.08L593.318 132.896C593.849 132.594 594.417 132.36 595.007 132.2H595.143C595.307 132.154 595.472 132.116 595.64 132.088L595.52 131.591C595.618 131.476 595.725 131.369 595.84 131.271C595.84 131.463 595.92 131.655 595.968 131.847L596.016 132.047H596.264C597.097 131.959 597.934 131.925 598.771 131.943C598.586 131.375 598.426 130.782 598.29 130.182L598.674 130.046C598.827 130.694 598.995 131.327 599.203 131.951C601.165 132.108 603.14 131.998 605.072 131.623C604.918 130.529 604.503 129.489 603.863 128.588L604.288 128.492C604.91 129.406 605.308 130.454 605.449 131.551C606.589 131.206 607.575 130.479 608.243 129.493C608.306 129.652 608.357 129.815 608.396 129.982C607.662 130.934 606.639 131.622 605.481 131.943C605.508 132.804 605.43 133.664 605.249 134.506H605.056H604.816C605.004 133.689 605.093 132.853 605.08 132.015C603.176 132.358 601.237 132.466 599.307 132.336C599.634 133.264 600.058 134.155 600.572 134.994H600.204H600.116C599.609 134.137 599.191 133.23 598.867 132.288C598.146 132.288 597.441 132.288 596.761 132.36C596.528 132.36 596.304 132.4 596.08 132.432C596.232 133.04 596.4 133.641 596.577 134.234C596.673 134.53 596.761 134.826 596.857 135.122C597.335 136.57 597.902 137.988 598.554 139.366L598.747 139.318C599.911 139.101 601.044 138.738 602.118 138.237L602.19 138.389C602.19 138.477 602.262 138.566 602.286 138.646C601.862 138.875 601.417 139.062 600.957 139.206C600.276 139.422 599.483 139.558 598.715 139.727C598.963 140.239 599.219 140.736 599.515 141.232C599.956 142.033 600.476 142.834 601.013 143.634C601.7 143.187 602.454 142.852 603.247 142.641C603.297 142.769 603.358 142.893 603.431 143.01C602.646 143.271 601.9 143.638 601.213 144.099C601.926 145.147 602.56 146.247 603.111 147.39H603.047L602.87 147.486L602.742 147.558C602.437 146.897 602.086 146.257 601.693 145.644L600.853 144.307C600.436 144.595 600.052 144.899 599.587 145.22C599.266 145.468 598.92 145.682 598.554 145.86L598.402 145.548C599.185 145.077 599.927 144.542 600.62 143.947C599.924 142.825 599.227 141.704 598.626 140.519L598.314 139.863C597.651 140.013 597.021 140.284 596.456 140.663C596.456 140.575 596.408 140.495 596.376 140.407C596.366 140.364 596.352 140.321 596.336 140.279C596.888 139.919 597.493 139.648 598.13 139.478C597.553 138.235 597.04 136.963 596.593 135.667L596.408 135.122C596.304 134.794 596.208 134.474 596.112 134.145C595.944 133.609 595.8 133.056 595.664 132.544L595.375 132.608C595.213 132.641 595.052 132.684 594.895 132.736C594.503 132.861 594.125 133.025 593.766 133.225C593.463 133.383 593.171 133.563 592.893 133.761C592.845 134.129 592.797 134.49 592.733 134.85C592.717 134.972 592.693 135.092 592.661 135.21C592.581 135.627 592.493 136.011 592.381 136.436C592.066 137.572 591.634 138.672 591.091 139.719C591.342 139.755 591.591 139.805 591.836 139.871C592.217 139.98 592.591 140.111 592.957 140.263C592.893 140.383 592.821 140.503 592.741 140.631C592.147 140.385 591.53 140.197 590.899 140.071C590.249 141.232 589.459 142.307 588.545 143.274L588.977 143.57C589.424 143.914 589.818 144.321 590.147 144.779L589.922 145.116C589.597 144.662 589.209 144.258 588.769 143.915C588.609 143.794 588.433 143.682 588.265 143.57C586.976 144.86 585.583 146.041 584.101 147.101C583.979 147.029 583.861 146.949 583.749 146.861C585.23 145.811 586.623 144.641 587.912 143.362C587.153 142.926 586.367 142.538 585.558 142.201Z" fill="#E9684A"/>
</g>
<path d="M290.757 3.98149C290.757 23.6319 274.749 39.5638 255 39.5638C235.251 39.5638 219.243 23.6319 219.243 3.98149C219.243 -15.669 235.251 -31.6008 255 -31.6008C274.749 -31.6008 290.757 -15.669 290.757 3.98149Z" stroke="#FEFEFE" stroke-width="0.485887"/>
<ellipse rx="6" ry="5.97087" transform="matrix(-1 0 0 1 277 33.8342)" fill="#FEFEFE"/>
<ellipse opacity="0.6" rx="6" ry="5.97087" transform="matrix(-1 0 0 1 561 88.5685)" fill="#FEFEFE"/>
<ellipse opacity="0.6" rx="3" ry="2.98544" transform="matrix(-1 0 0 1 586 21.8936)" fill="#FEFEFE"/>
</g>
<defs>
<clipPath id="clip0_593_6045">
<rect width="860" height="205" fill="white"/>
</clipPath>
<clipPath id="clip1_593_6045">
<rect width="80.1714" height="110.073" fill="white" transform="matrix(-1 0 0 1 304.171 69)"/>
</clipPath>
<clipPath id="clip2_593_6045">
<rect width="75.7984" height="126.301" fill="white" transform="matrix(-1 0 0 1 635.678 64)"/>
</clipPath>
</defs>
</svg>
