<svg width="22" height="20" viewBox="0 0 22 20" fill="none" xmlns="http://www.w3.org/2000/svg">
<path d="M19.8401 2.60987C19.3294 2.09888 18.7229 1.69352 18.0555 1.41696C17.388 1.14039 16.6726 0.998047 15.9501 0.998047C15.2276 0.998047 14.5122 1.14039 13.8448 1.41696C13.1773 1.69352 12.5709 2.09888 12.0601 2.60987L11.0001 3.66987L9.94012 2.60987C8.90843 1.57818 7.50915 0.998582 6.05012 0.998582C4.59109 0.998582 3.19181 1.57818 2.16012 2.60987C1.12843 3.64156 0.548828 5.04084 0.548828 6.49987C0.548828 7.95891 1.12843 9.35818 2.16012 10.3899L3.22012 11.4499L11.0001 19.2299L18.7801 11.4499L19.8401 10.3899C20.3511 9.87912 20.7565 9.27269 21.033 8.60523C21.3096 7.93777 21.4519 7.22236 21.4519 6.49987C21.4519 5.77738 21.3096 5.06198 21.033 4.39452C20.7565 3.72706 20.3511 3.12063 19.8401 2.60987V2.60987Z" fill="#1569CB"/>
</svg>
