<svg width="8" height="16" viewBox="0 0 16 36" fill="none" xmlns="http://www.w3.org/2000/svg">
  <path
    d="M15.9819 1.82276L9.0348 25.4779L3.73466 24.0518L9.6119 0.108834L15.9819 1.82276ZM3.6212 35.0359C2.62262 34.7672 1.86117 34.1858 1.33686 33.2916C0.823528 32.4003 0.702674 31.4499 0.974304 30.4404C1.24003 29.4528 1.81852 28.7023 2.70978 28.189C3.612 27.6786 4.56241 27.5577 5.56098 27.8264C6.53762 28.0892 7.28809 28.6677 7.8124 29.5619C8.34768 30.459 8.48246 31.4014 8.21673 32.389C8.03663 33.0584 7.70268 33.6217 7.21488 34.0788C6.73806 34.5389 6.18102 34.8597 5.54378 35.0413C4.92046 35.2149 4.2796 35.2131 3.6212 35.0359Z"
    fill="#1569CB"
  />
</svg>