<svg width="54" height="70" viewBox="0 0 47 46" fill="none" xmlns="http://www.w3.org/2000/svg">
  <g clip-path="url(#clip0_613_6169)">
    <path
      fill-rule="evenodd"
      clip-rule="evenodd"
      d="M23.5 0.000762939C10.5166 0.000762939 0 10.5173 0 23.5008C0 33.8875 6.73696 42.6874 16.0706 45.8034C17.2391 46.0198 17.6719 45.2985 17.6719 44.6637C17.6719 44.1011 17.6575 42.6297 17.643 40.6677C11.108 42.0815 9.72314 37.5229 9.72314 37.5229C8.65562 34.8108 7.11203 34.075 7.11203 34.075C4.97698 32.618 7.27072 32.6469 7.27072 32.6469C9.62216 32.82 10.8772 35.0704 10.8772 35.0704C12.969 38.6625 16.3735 37.6238 17.7152 37.0179C17.9316 35.5032 18.5374 34.4645 19.201 33.8731C13.9932 33.296 8.51136 31.2764 8.51136 22.2745C8.51136 19.7067 9.4202 17.6149 10.9349 15.9704C10.6897 15.3645 9.88183 12.9842 11.1513 9.75276C11.1513 9.75276 13.1277 9.11801 17.6142 12.1619C19.4896 11.6426 21.4948 11.3829 23.5 11.3685C25.4908 11.3829 27.5104 11.6426 29.3858 12.1619C33.8723 9.11801 35.8487 9.75276 35.8487 9.75276C37.1326 12.9842 36.3247 15.3789 36.0795 15.9704C37.5798 17.6149 38.4886 19.7067 38.4886 22.2745C38.4886 31.3052 32.9923 33.2816 27.7557 33.8731C28.5924 34.5944 29.357 36.037 29.357 38.2297C29.357 41.3746 29.3281 43.8992 29.3281 44.6782C29.3281 45.3129 29.7465 46.0342 30.9438 45.8034C40.2775 42.6874 47 33.8875 47 23.5152C47 10.5173 36.4834 0.000762939 23.5 0.000762939Z"
      fill="#231E1B"
    />
  </g>
  <defs>
    <clipPath id="clip0_613_6169">
      <rect width="47" height="45.8315" fill="white" />
    </clipPath>
  </defs>
</svg>
