<svg width="155" height="30" viewBox="0 0 155 30" fill="none" xmlns="http://www.w3.org/2000/svg">
<rect y="3" width="24" height="24" rx="3" fill="#1569CB"/>
<path fill-rule="evenodd" clip-rule="evenodd" d="M12.1616 7.125L21.3231 15.0916H18.9331V23.0581H5.38989V15.0916H3L12.1616 7.125ZM10.9966 18.9454V21.3654H13.3267V18.9454H15.7466V16.6153H13.3267V14.1954H10.9966V16.6153H8.57666V18.9454H10.9966Z" fill="#FEFEFE"/>
<path d="M43.0842 10.22V12.34H45.9442V16.42H48.5842V5.3H45.9442V10.22H43.0842ZM44.2442 13.82C41.3042 13.04 39.9842 11.18 39.9442 9.28H43.5842V7.2H39.9442V5.24H37.3042V7.2H33.7042V9.28H37.3042C37.2642 11.34 35.9842 13.42 33.0642 14.26L34.3042 16.3C36.4442 15.68 37.8842 14.38 38.7042 12.7C39.5442 14.16 40.9842 15.3 43.0442 15.84L44.2442 13.82ZM42.3642 21.7C39.9242 21.7 38.6842 21.24 38.6842 20.24C38.6842 19.24 39.9242 18.76 42.3642 18.76C44.7642 18.76 46.0242 19.24 46.0242 20.24C46.0242 21.24 44.7642 21.7 42.3642 21.7ZM42.3642 16.74C38.4442 16.74 36.0442 18.02 36.0442 20.24C36.0442 22.44 38.4442 23.72 42.3642 23.72C46.2642 23.72 48.6642 22.44 48.6642 20.24C48.6642 18.02 46.2642 16.74 42.3642 16.74ZM63.8427 18.84H66.4827V5.3H63.8427V7.34H59.3827V9.42H63.8427V10.78H59.3827V12.86H63.8427V18.84ZM61.2227 13.74C58.9627 14.14 56.9227 14.28 54.7027 14.32V6.46H52.0827V16.48H53.5627C56.3227 16.48 58.7627 16.38 61.4827 15.88L61.2227 13.74ZM56.9827 21.3V17.64H54.3427V23.4H66.9027V21.3H56.9827ZM77.3011 7.5C79.9811 7.5 81.2411 7.88 81.2411 8.7C81.2411 9.56 79.9811 9.92 77.3011 9.92C74.6411 9.92 73.3811 9.56 73.3811 8.7C73.3811 7.88 74.6411 7.5 77.3011 7.5ZM77.3011 11.84C81.5211 11.84 83.9811 10.74 83.9811 8.7C83.9811 6.68 81.5211 5.56 77.3011 5.56C73.1011 5.56 70.6411 6.68 70.6411 8.7C70.6411 10.74 73.1011 11.84 77.3011 11.84ZM73.5211 20.56H83.6011V15.82H70.8811V17.76H81.0011V18.74H70.9011V23.58H84.0811V21.6H73.5211V20.56ZM68.9811 12.72V14.78H85.6211V12.72H68.9811ZM108 14.2H105.58C106.04 11.62 106.04 9.74 106.04 8.02V6.36H93.2605V8.48H103.46C103.46 10.06 103.42 11.86 102.96 14.2H91.3605V16.32H98.2405V23.72H100.92V16.32H108V14.2ZM113.659 17.56C112.659 17.56 111.939 16.76 111.939 15.38C111.939 14 112.659 13.18 113.659 13.18C114.659 13.18 115.379 14 115.379 15.38C115.379 16.76 114.659 17.56 113.659 17.56ZM113.659 10.98C111.299 10.98 109.619 12.8 109.619 15.38C109.619 17.94 111.299 19.76 113.659 19.76C116.019 19.76 117.699 17.94 117.699 15.38C117.699 12.8 116.019 10.98 113.659 10.98ZM114.959 5.8H112.359V8.08H109.219V10.18H118.019V8.08H114.959V5.8ZM122.539 5.28V12.8H121.139V5.64H118.679V22.94H121.139V14.92H122.539V23.7H125.039V5.28H122.539ZM128.417 13.74C130.697 13.34 132.237 12.38 133.097 11.1C133.897 12.3 135.357 13.16 137.477 13.54L138.517 11.54C135.757 11.1 134.437 9.84 134.397 8.52H137.897V6.44H128.137V8.52H131.717C131.677 9.92 130.357 11.28 127.397 11.74L128.417 13.74ZM138.917 14.22C134.957 14.78 130.417 14.82 127.077 14.82L127.397 16.96C128.657 16.96 130.077 16.96 131.597 16.9V23.18H134.237V16.74C135.837 16.62 137.457 16.42 139.057 16.14L138.917 14.22ZM140.097 5.3V17.78H136.417V19.78H140.097V23.7H142.737V5.3H140.097Z" fill="#1569CB"/>
<path d="M154.539 7.36882L151.262 18.5276L148.762 17.8549L151.534 6.56031L154.539 7.36882ZM148.708 23.0365C148.237 22.9097 147.878 22.6354 147.631 22.2136C147.389 21.7932 147.332 21.3448 147.46 20.8686C147.585 20.4027 147.858 20.0487 148.278 19.8065C148.704 19.5658 149.152 19.5088 149.623 19.6355C150.084 19.7595 150.438 20.0324 150.685 20.4542C150.938 20.8774 151.002 21.322 150.876 21.7878C150.791 22.1036 150.634 22.3693 150.404 22.585C150.179 22.802 149.916 22.9533 149.615 23.039C149.321 23.1209 149.019 23.12 148.708 23.0365Z" fill="#1569CB"/>
</svg>
