<svg width="48" height="48" viewBox="0 0 48 48" fill="none" xmlns="http://www.w3.org/2000/svg">
<circle cx="24" cy="24" r="22" fill="#F2F2F2"/>
<path d="M25.1667 29.3H25.3598L25.3665 29.107L25.9665 12.007L25.9738 11.8H25.7667H22.2667H22.0599L22.0668 12.0066L22.6334 29.1066L22.6399 29.3H22.8333H25.1667ZM22.4386 32.113L22.4386 32.113L22.4343 32.1167C21.9927 32.5064 21.8 33.1557 21.8 34C21.8 34.8257 21.9943 35.4693 22.4296 35.879L22.4295 35.879L22.4338 35.8828C22.8719 36.2722 23.3975 36.4667 24 36.4667C24.5825 36.4667 25.0964 36.2708 25.5329 35.8828L25.4 35.7333L25.5329 35.8828C25.993 35.4738 26.2 34.8286 26.2 34C26.2 33.1527 25.9946 32.5019 25.528 32.113C25.0912 31.749 24.5789 31.5667 24 31.5667C23.401 31.5667 22.8771 31.7476 22.4386 32.113Z" fill="#B2B2B2" stroke="#B2B2B2" stroke-width="0.4"/>
</svg>