<svg width="26" height="26" viewBox="0 0 26 26" fill="none" xmlns="http://www.w3.org/2000/svg">
<g filter="url(#filter0_d_18_2882)">
<path d="M4 0H22V18H4V0Z" fill="white"/>
<path d="M12.25 14.25C15.5637 14.25 18.25 11.5637 18.25 8.25C18.25 4.93629 15.5637 2.25 12.25 2.25C8.93629 2.25 6.25 4.93629 6.25 8.25C6.25 11.5637 8.93629 14.25 12.25 14.25Z" stroke="#262626" stroke-width="1.5" stroke-linecap="round" stroke-linejoin="round"/>
<path d="M19.7498 15.75L16.4873 12.4875" stroke="#262626" stroke-width="1.5" stroke-linecap="round" stroke-linejoin="round"/>
<path d="M4 0V-1H3V0H4ZM22 0H23V-1H22V0ZM22 18V19H23V18H22ZM4 18H3V19H4V18ZM4 1H22V-1H4V1ZM21 0V18H23V0H21ZM22 17H4V19H22V17ZM5 18V0H3V18H5Z" fill="black"/>
</g>
<defs>
<filter id="filter0_d_18_2882" x="0" y="0" width="26" height="26" filterUnits="userSpaceOnUse" color-interpolation-filters="sRGB">
<feFlood flood-opacity="0" result="BackgroundImageFix"/>
<feColorMatrix in="SourceAlpha" type="matrix" values="0 0 0 0 0 0 0 0 0 0 0 0 0 0 0 0 0 0 127 0" result="hardAlpha"/>
<feOffset dy="4"/>
<feGaussianBlur stdDeviation="2"/>
<feComposite in2="hardAlpha" operator="out"/>
<feColorMatrix type="matrix" values="0 0 0 0 0 0 0 0 0 0 0 0 0 0 0 0 0 0 0.25 0"/>
<feBlend mode="normal" in2="BackgroundImageFix" result="effect1_dropShadow_18_2882"/>
<feBlend mode="normal" in="SourceGraphic" in2="effect1_dropShadow_18_2882" result="shape"/>
</filter>
</defs>
</svg>
